<?xml version="1.0" encoding="UTF-8"?>
<!DOCTYPE svg PUBLIC "-//W3C//DTD SVG 1.1//EN" "http://www.w3.org/Graphics/SVG/1.1/DTD/svg11.dtd">
<svg version="1.1" xmlns="http://www.w3.org/2000/svg" xmlns:xlink="http://www.w3.org/1999/xlink" x="0" y="0" width="128" height="128" viewBox="0, 0, 128, 128">
  <g id="Layer_1">
    <g>
      <path d="M16.72,73.261 C16.72,76.111 14.409,78.422 11.559,78.422 C8.709,78.422 6.399,76.111 6.399,73.261 C6.399,70.412 8.709,68.101 11.559,68.101 C14.409,68.101 16.72,70.412 16.72,73.261 z" fill="#FFFFFF"/>
      <path d="M120.546,55.868 C120.546,58.718 118.236,61.028 115.386,61.028 C112.536,61.028 110.226,58.718 110.226,55.868 C110.226,53.018 112.536,50.708 115.386,50.708 C118.236,50.708 120.546,53.018 120.546,55.868 z" fill="#FFFFFF"/>
      <path d="M107.552,69.86 C107.552,73.425 104.662,76.315 101.097,76.315 C97.532,76.315 94.642,73.425 94.642,69.86 C94.642,66.295 97.532,63.405 101.097,63.405 C104.662,63.405 107.552,66.295 107.552,69.86 z" fill="#FFFFFF"/>
      <path d="M90.303,80.681 C90.303,84.855 86.919,88.24 82.744,88.24 C78.57,88.24 75.186,84.855 75.186,80.681 C75.186,76.506 78.57,73.122 82.744,73.122 C86.919,73.122 90.303,76.506 90.303,80.681 z" fill="#FFFFFF"/>
      <path d="M71.718,83.753 C71.718,88.488 67.879,92.327 63.144,92.327 C58.408,92.327 54.57,88.488 54.57,83.753 C54.57,79.018 58.408,75.179 63.144,75.179 C67.879,75.179 71.718,79.018 71.718,83.753 z" fill="#FFFFFF"/>
      <path d="M72.027,43.977 C72.027,48.628 68.256,52.399 63.604,52.399 C58.953,52.399 55.182,48.628 55.182,43.977 C55.182,39.325 58.953,35.554 63.604,35.554 C68.256,35.554 72.027,39.325 72.027,43.977 z" fill="#FFFFFF"/>
      <path d="M50.718,46.577 C50.718,50.636 47.427,53.927 43.367,53.927 C39.307,53.927 36.016,50.636 36.016,46.577 C36.016,42.517 39.307,39.226 43.367,39.226 C47.427,39.226 50.718,42.517 50.718,46.577 z" fill="#FFFFFF"/>
      <path d="M31.916,58.551 C31.916,62.283 28.89,65.309 25.158,65.309 C21.425,65.309 18.399,62.283 18.399,58.551 C18.399,54.818 21.425,51.793 25.158,51.793 C28.89,51.793 31.916,54.818 31.916,58.551 z" fill="#FFFFFF"/>
      <path d="M53.317,70.349 C53.317,75.72 48.963,80.074 43.591,80.074 C38.22,80.074 33.866,75.72 33.866,70.349 C33.866,64.978 38.22,60.623 43.591,60.623 C48.963,60.623 53.317,64.978 53.317,70.349 z" fill="#FFFFFF"/>
      <path d="M92.264,56.774 C92.264,61.981 88.042,66.203 82.835,66.203 C77.628,66.203 73.406,61.981 73.406,56.774 C73.406,51.567 77.628,47.345 82.835,47.345 C88.042,47.345 92.264,51.567 92.264,56.774 z" fill="#FFFFFF"/>
    </g>
  </g>
</svg>
